<svg width="25" height="25" viewBox="0 0 25 25" fill="none" xmlns="http://www.w3.org/2000/svg">
<g clip-path="url(#clip0_475_27)">
<path d="M7.64498 10.5052L12.5 5.65038L17.3575 10.5078L20.1825 7.68275L12.5 0L4.8201 7.68025L7.64498 10.5052ZM0.000183105 12.4996L2.82527 9.67452L5.65017 12.4994L2.82511 15.3245L0.000183105 12.4996ZM7.64498 14.4947L12.5 19.3496L17.3573 14.4924L20.1838 17.3159L20.1825 17.3174L12.5 25L4.81985 17.32L4.81585 17.316L7.64498 14.4947ZM19.3503 12.5012L22.1753 9.67609L25.0002 12.501L22.1752 15.3261L19.3503 12.5012Z" fill="#F3BA2F"/>
<path d="M15.3652 12.4985H15.3665L12.4998 9.63187L10.3813 11.7504H10.3812L10.1378 11.9939L9.63584 12.496L9.63184 12.4999L9.63584 12.504L12.4998 15.3681L15.3665 12.5015L15.3678 12.4999L15.3652 12.4985" fill="#F3BA2F"/>
</g>
<defs>
<clipPath id="clip0_475_27">
<rect width="25" height="25" fill="white"/>
</clipPath>
</defs>
</svg>
