<svg width="20" height="20" viewBox="0 0 20 20" fill="none" xmlns="http://www.w3.org/2000/svg">
<path d="M10.0001 18.3334C14.6025 18.3334 18.3334 14.6024 18.3334 10C18.3334 5.39765 14.6025 1.66669 10.0001 1.66669C5.39771 1.66669 1.66675 5.39765 1.66675 10C1.66675 14.6024 5.39771 18.3334 10.0001 18.3334Z" stroke="#2484EA" stroke-width="2" stroke-linecap="round" stroke-linejoin="round"/>
<path d="M9.84889 7.68569C10.5049 7.68569 11.0366 7.15391 11.0366 6.49794C11.0366 5.84196 10.5049 5.31018 9.84889 5.31018C9.19291 5.31018 8.66113 5.84196 8.66113 6.49794C8.66113 7.15391 9.19291 7.68569 9.84889 7.68569Z" fill="#2484EA"/>
<path d="M11.6368 14.6897H11.0368H8.96328H8.36328V13.102H8.96328V10.4H8.37145V8.81219H8.96328H10.7388H11.0368V13.102H11.6368V14.6897Z" fill="#2484EA"/>
</svg>
