<svg width="25" height="23" viewBox="0 0 25 23" fill="none" xmlns="http://www.w3.org/2000/svg">
<g clip-path="url(#clip0_475_24)">
<path d="M18.8802 7.00298C18.4245 6.72835 17.8385 6.72835 17.3177 7.00298L13.6719 9.26865L11.1979 10.7104L7.61719 12.9761C7.16146 13.2507 6.57552 13.2507 6.05469 12.9761L3.25521 11.191C2.79948 10.9164 2.47396 10.3672 2.47396 9.74925V6.31641C2.47396 5.76716 2.73437 5.2179 3.25521 4.87462L6.05469 3.1582C6.51042 2.88357 7.09635 2.88357 7.61719 3.1582L10.4167 4.94328C10.8724 5.2179 11.1979 5.76716 11.1979 6.38507V8.65074L13.6719 7.14029V4.80596C13.6719 4.25671 13.4115 3.70746 12.8906 3.36417L7.68229 0.137306C7.22656 -0.137321 6.64062 -0.137321 6.11979 0.137306L0.78125 3.43283C0.260417 3.70746 0 4.25671 0 4.80596V11.2597C0 11.8089 0.260417 12.3582 0.78125 12.7015L6.05469 15.9284C6.51042 16.203 7.09635 16.203 7.61719 15.9284L11.1979 13.7313L13.6719 12.2209L17.2526 10.0239C17.7083 9.74925 18.2943 9.74925 18.8151 10.0239L21.6146 11.7403C22.0703 12.0149 22.3958 12.5642 22.3958 13.1821V16.6149C22.3958 17.1642 22.1354 17.7134 21.6146 18.0567L18.8802 19.7731C18.4245 20.0478 17.8385 20.0478 17.3177 19.7731L14.5182 18.0567C14.0625 17.7821 13.737 17.2328 13.737 16.6149V14.4179L11.263 15.9284V18.194C11.263 18.7433 11.5234 19.2925 12.0443 19.6358L17.3177 22.8627C17.7734 23.1373 18.3594 23.1373 18.8802 22.8627L24.1536 19.6358C24.6094 19.3612 24.9349 18.8119 24.9349 18.194V11.6716C24.9349 11.1224 24.6745 10.5731 24.1536 10.2298L18.8802 7.00298Z" fill="#8247E5"/>
</g>
<defs>
<clipPath id="clip0_475_24">
<rect width="25" height="23" fill="white"/>
</clipPath>
</defs>
</svg>
